<svg
  width="100"
  height="100"
  viewBox="0 0 100 100"
  fill="none"
  xmlns="http://www.w3.org/2000/svg"
>
  <path
    d="M45.8333 20.8333C45.8333 16.6667 50 8.33333 58.3333 8.33333C66.6667 8.33333 70.8333 16.6667 70.8333 20.8333C70.8333 25 66.6667 29.1667 58.3333 29.1667C50 29.1667 45.8333 25 45.8333 20.8333Z"
    fill="#A855F7"
  />
  <path
    d="M58.3333 29.1667V50"
    stroke="#A855F7"
    stroke-width="8.33333"
    stroke-linecap="round"
    stroke-linejoin="round"
  />
  <path
    d="M41.6667 50H75V75C75 83.3333 66.6667 91.6667 58.3333 91.6667C50 91.6667 41.6667 83.3333 41.6667 75V50Z"
    fill="#E9D5FF"
  />
  <path
    d="M41.6667 50H75V75C75 83.3333 66.6667 91.6667 58.3333 91.6667C50 91.6667 41.6667 83.3333 41.6667 75V50Z"
    stroke="#A855F7"
    stroke-width="8.33333"
    stroke-linecap="round"
    stroke-linejoin="round"
  />
</svg>
